<svg id="visual" viewBox="0 0 900 600" width="900" height="600" xmlns="http://www.w3.org/2000/svg" xmlns:xlink="http://www.w3.org/1999/xlink" version="1.1"><rect x="0" y="0" width="900" height="600" fill="#93bfb7"></rect><defs><linearGradient id="grad1_0" x1="33.3%" y1="0%" x2="100%" y2="100%"><stop offset="20%" stop-color="#014034" stop-opacity="1"></stop><stop offset="80%" stop-color="#014034" stop-opacity="1"></stop></linearGradient></defs><defs><linearGradient id="grad1_1" x1="33.3%" y1="0%" x2="100%" y2="100%"><stop offset="20%" stop-color="#014034" stop-opacity="1"></stop><stop offset="80%" stop-color="#93bfb7" stop-opacity="1"></stop></linearGradient></defs><defs><linearGradient id="grad2_0" x1="0%" y1="0%" x2="66.7%" y2="100%"><stop offset="20%" stop-color="#014034" stop-opacity="1"></stop><stop offset="80%" stop-color="#014034" stop-opacity="1"></stop></linearGradient></defs><defs><linearGradient id="grad2_1" x1="0%" y1="0%" x2="66.7%" y2="100%"><stop offset="20%" stop-color="#93bfb7" stop-opacity="1"></stop><stop offset="80%" stop-color="#014034" stop-opacity="1"></stop></linearGradient></defs><g transform="translate(900, 0)"><path d="M0 540.8C-41.7 490 -83.4 439.2 -139.7 429.9C-195.9 420.6 -266.7 452.8 -317.9 437.5C-369.1 422.3 -400.6 359.6 -417.5 303.3C-434.3 247 -436.5 197.2 -454.6 147.7C-472.7 98.2 -506.8 49.1 -540.8 0L0 0Z" fill="#4c7d72"></path><path d="M0 270.4C-20.9 245 -41.7 219.6 -69.8 214.9C-98 210.3 -133.4 226.4 -158.9 218.8C-184.5 211.1 -200.3 179.8 -208.7 151.6C-217.2 123.5 -218.2 98.6 -227.3 73.9C-236.4 49.1 -253.4 24.6 -270.4 0L0 0Z" fill="#014034"></path></g><g transform="translate(0, 600)"><path d="M0 -540.8C60.6 -542.6 121.2 -544.3 167.1 -514.4C213 -484.4 244.1 -422.7 273.9 -377C303.7 -331.3 332.1 -301.4 371.3 -269.8C410.6 -238.2 460.7 -204.7 490.7 -159.5C520.8 -114.2 530.8 -57.1 540.8 0L0 0Z" fill="#4c7d72"></path><path d="M0 -270.4C30.3 -271.3 60.6 -272.2 83.6 -257.2C106.5 -242.2 122.1 -211.4 137 -188.5C151.8 -165.6 166 -150.7 185.7 -134.9C205.3 -119.1 230.3 -102.4 245.4 -79.7C260.4 -57.1 265.4 -28.5 270.4 0L0 0Z" fill="#014034"></path></g></svg>