<?xml version="1.0" standalone="no"?>
<svg xmlns:xlink="http://www.w3.org/1999/xlink" id="wave" style="transform:rotate(0deg); transition: 0.3s" viewBox="0 0 1440 490" version="1.1" xmlns="http://www.w3.org/2000/svg"><defs><linearGradient id="sw-gradient-0" x1="0" x2="0" y1="1" y2="0"><stop stop-color="rgba(1, 64, 52, 1)" offset="0%"/><stop stop-color="rgba(2, 115, 94, 1)" offset="100%"/></linearGradient></defs><path style="transform:translate(0, 0px); opacity:1" fill="url(#sw-gradient-0)" d="M0,49L60,89.8C120,131,240,212,360,269.5C480,327,600,359,720,359.3C840,359,960,327,1080,326.7C1200,327,1320,359,1440,375.7C1560,392,1680,392,1800,351.2C1920,310,2040,229,2160,228.7C2280,229,2400,310,2520,359.3C2640,408,2760,425,2880,424.7C3000,425,3120,408,3240,351.2C3360,294,3480,196,3600,138.8C3720,82,3840,65,3960,98C4080,131,4200,212,4320,253.2C4440,294,4560,294,4680,285.8C4800,278,4920,261,5040,228.7C5160,196,5280,147,5400,171.5C5520,196,5640,294,5760,285.8C5880,278,6000,163,6120,122.5C6240,82,6360,114,6480,155.2C6600,196,6720,245,6840,261.3C6960,278,7080,261,7200,277.7C7320,294,7440,343,7560,302.2C7680,261,7800,131,7920,81.7C8040,33,8160,65,8280,98C8400,131,8520,163,8580,179.7L8640,196L8640,490L8580,490C8520,490,8400,490,8280,490C8160,490,8040,490,7920,490C7800,490,7680,490,7560,490C7440,490,7320,490,7200,490C7080,490,6960,490,6840,490C6720,490,6600,490,6480,490C6360,490,6240,490,6120,490C6000,490,5880,490,5760,490C5640,490,5520,490,5400,490C5280,490,5160,490,5040,490C4920,490,4800,490,4680,490C4560,490,4440,490,4320,490C4200,490,4080,490,3960,490C3840,490,3720,490,3600,490C3480,490,3360,490,3240,490C3120,490,3000,490,2880,490C2760,490,2640,490,2520,490C2400,490,2280,490,2160,490C2040,490,1920,490,1800,490C1680,490,1560,490,1440,490C1320,490,1200,490,1080,490C960,490,840,490,720,490C600,490,480,490,360,490C240,490,120,490,60,490L0,490Z"/><defs><linearGradient id="sw-gradient-1" x1="0" x2="0" y1="1" y2="0"><stop stop-color="rgba(1, 64, 52, 1)" offset="0%"/><stop stop-color="rgba(2, 115, 94, 1)" offset="100%"/></linearGradient></defs><path style="transform:translate(0, 50px); opacity:0.9" fill="url(#sw-gradient-1)" d="M0,196L60,228.7C120,261,240,327,360,318.5C480,310,600,229,720,163.3C840,98,960,49,1080,24.5C1200,0,1320,0,1440,24.5C1560,49,1680,98,1800,171.5C1920,245,2040,343,2160,375.7C2280,408,2400,376,2520,334.8C2640,294,2760,245,2880,228.7C3000,212,3120,229,3240,261.3C3360,294,3480,343,3600,334.8C3720,327,3840,261,3960,196C4080,131,4200,65,4320,65.3C4440,65,4560,131,4680,130.7C4800,131,4920,65,5040,57.2C5160,49,5280,98,5400,155.2C5520,212,5640,278,5760,318.5C5880,359,6000,376,6120,359.3C6240,343,6360,294,6480,302.2C6600,310,6720,376,6840,400.2C6960,425,7080,408,7200,375.7C7320,343,7440,294,7560,302.2C7680,310,7800,376,7920,334.8C8040,294,8160,147,8280,89.8C8400,33,8520,65,8580,81.7L8640,98L8640,490L8580,490C8520,490,8400,490,8280,490C8160,490,8040,490,7920,490C7800,490,7680,490,7560,490C7440,490,7320,490,7200,490C7080,490,6960,490,6840,490C6720,490,6600,490,6480,490C6360,490,6240,490,6120,490C6000,490,5880,490,5760,490C5640,490,5520,490,5400,490C5280,490,5160,490,5040,490C4920,490,4800,490,4680,490C4560,490,4440,490,4320,490C4200,490,4080,490,3960,490C3840,490,3720,490,3600,490C3480,490,3360,490,3240,490C3120,490,3000,490,2880,490C2760,490,2640,490,2520,490C2400,490,2280,490,2160,490C2040,490,1920,490,1800,490C1680,490,1560,490,1440,490C1320,490,1200,490,1080,490C960,490,840,490,720,490C600,490,480,490,360,490C240,490,120,490,60,490L0,490Z"/><defs><linearGradient id="sw-gradient-2" x1="0" x2="0" y1="1" y2="0"><stop stop-color="rgba(1, 64, 52, 1)" offset="0%"/><stop stop-color="rgba(2, 115, 94, 1)" offset="100%"/></linearGradient></defs><path style="transform:translate(0, 100px); opacity:0.8" fill="url(#sw-gradient-2)" d="M0,0L60,40.8C120,82,240,163,360,220.5C480,278,600,310,720,269.5C840,229,960,114,1080,106.2C1200,98,1320,196,1440,269.5C1560,343,1680,392,1800,400.2C1920,408,2040,376,2160,318.5C2280,261,2400,180,2520,171.5C2640,163,2760,229,2880,285.8C3000,343,3120,392,3240,343C3360,294,3480,147,3600,122.5C3720,98,3840,196,3960,269.5C4080,343,4200,392,4320,359.3C4440,327,4560,212,4680,138.8C4800,65,4920,33,5040,65.3C5160,98,5280,196,5400,261.3C5520,327,5640,359,5760,334.8C5880,310,6000,229,6120,196C6240,163,6360,180,6480,187.8C6600,196,6720,196,6840,228.7C6960,261,7080,327,7200,334.8C7320,343,7440,294,7560,228.7C7680,163,7800,82,7920,98C8040,114,8160,229,8280,294C8400,359,8520,376,8580,383.8L8640,392L8640,490L8580,490C8520,490,8400,490,8280,490C8160,490,8040,490,7920,490C7800,490,7680,490,7560,490C7440,490,7320,490,7200,490C7080,490,6960,490,6840,490C6720,490,6600,490,6480,490C6360,490,6240,490,6120,490C6000,490,5880,490,5760,490C5640,490,5520,490,5400,490C5280,490,5160,490,5040,490C4920,490,4800,490,4680,490C4560,490,4440,490,4320,490C4200,490,4080,490,3960,490C3840,490,3720,490,3600,490C3480,490,3360,490,3240,490C3120,490,3000,490,2880,490C2760,490,2640,490,2520,490C2400,490,2280,490,2160,490C2040,490,1920,490,1800,490C1680,490,1560,490,1440,490C1320,490,1200,490,1080,490C960,490,840,490,720,490C600,490,480,490,360,490C240,490,120,490,60,490L0,490Z"/></svg>